M48
; DRILL file {KiCad 8.0.6} date 2025-05-08T21:12:25+0100
; FORMAT={-:-/ absolute / metric / decimal}
; #@! TF.CreationDate,2025-05-08T21:12:25+01:00
; #@! TF.GenerationSoftware,Kicad,Pcbnew,8.0.6
; #@! TF.FileFunction,Plated,1,2,PTH
FMAT,2
METRIC
; #@! TA.AperFunction,Plated,PTH,ViaDrill
T1C0.300
; #@! TA.AperFunction,Plated,PTH,ComponentDrill
T2C0.460
; #@! TA.AperFunction,Plated,PTH,ComponentDrill
T3C0.500
; #@! TA.AperFunction,Plated,PTH,ComponentDrill
T4C0.750
; #@! TA.AperFunction,Plated,PTH,ComponentDrill
T5C1.000
; #@! TA.AperFunction,Plated,PTH,ComponentDrill
T6C1.200
%
G90
G05
T1
X133.985Y-82.55
X135.255Y-76.835
X137.16Y-52.07
X139.7Y-90.805
X140.97Y-35.56
X144.145Y-52.07
X146.05Y-48.895
X146.685Y-77.47
X149.86Y-49.53
X156.845Y-63.5
X157.48Y-37.465
X159.385Y-80.01
X160.02Y-48.895
X161.29Y-42.545
X161.29Y-58.42
X162.56Y-36.83
X163.83Y-50.8
X169.545Y-33.02
X171.45Y-58.42
X172.72Y-52.07
X174.625Y-33.02
X176.355Y-48.085
X177.165Y-36.83
X180.623Y-51.787
T2
X169.675Y-26.485
X178.435Y-26.485
T3
X130.445Y-42.545
X131.445Y-42.545
T4
X131.445Y-46.165
X131.445Y-48.165
X131.445Y-50.165
T5
X151.14Y-30.48
X158.74Y-30.48
X162.545Y-59.106
X162.545Y-61.646
X162.545Y-64.186
T6
X132.065Y-26.67
X132.065Y-31.67
X135.565Y-26.67
X135.565Y-31.67
X139.065Y-26.67
X139.065Y-31.67
X142.565Y-26.67
X142.565Y-31.67
X169.22Y-91.44
X169.22Y-96.44
X172.72Y-91.44
X172.72Y-96.44
X176.22Y-91.44
X176.22Y-96.44
X179.72Y-91.44
X179.72Y-96.44
M30
